<?xml version="1.0" standalone="no"?>
<!DOCTYPE svg PUBLIC "-//W3C//DTD SVG 20010904//EN"
 "http://www.w3.org/TR/2001/REC-SVG-20010904/DTD/svg10.dtd">
<svg version="1.0" xmlns="http://www.w3.org/2000/svg"
 width="160.000000pt" height="160.000000pt" viewBox="0 0 160.000000 160.000000"
 preserveAspectRatio="xMidYMid meet">
<metadata>
Created by potrace 1.14, written by Peter Selinger 2001-2017
</metadata>
<g transform="translate(0.000000,160.000000) scale(0.100000,-0.100000)"
fill="#000000" stroke="none">
<path d="M515 1571 c-43 -20 -84 -60 -107 -104 l-14 -27 -34 25 c-76 56 -189
91 -295 90 l-60 0 -3 -777 -2 -778 356 0 c279 0 355 3 352 12 -4 11 -50 33
-203 99 -11 5 -47 20 -80 34 l-60 24 45 1 c205 6 323 37 333 87 6 30 2 213 -8
368 -7 118 -9 140 -20 197 l-7 38 40 -40 c22 -22 45 -40 51 -40 14 0 74 59
165 163 38 42 70 76 72 74 1 -1 6 -25 9 -52 4 -28 9 -53 12 -57 2 -5 -3 -8
-11 -8 -23 0 -29 -40 -17 -112 22 -136 29 -154 66 -168 17 -6 28 -23 39 -62
27 -93 103 -193 192 -254 30 -21 54 -40 54 -44 0 -13 -46 -47 -85 -63 -22 -9
-96 -37 -164 -62 -131 -47 -194 -79 -225 -114 l-19 -21 356 0 357 0 0 781 0
781 -87 -6 c-105 -7 -178 -27 -257 -69 -44 -24 -61 -28 -64 -18 -9 28 -69 85
-107 102 -84 38 -168 17 -244 -63 l-40 -41 -60 55 c-77 72 -145 87 -226 49z"/>
</g>
</svg>
