<svg width="327" height="234" viewBox="0 0 327 234" fill="none" xmlns="http://www.w3.org/2000/svg">
<path d="M114.99 63.5548C114.99 63.5548 133.735 60.773 151.508 65.2687C168.137 69.476 184.631 92.8557 186.8 123.447C188.969 154.039 181.375 182.789 181.375 182.789H185.172C185.172 182.789 195.396 139.441 188.521 108.876C181.647 78.3139 164.031 66.1304 152.428 63.1895C140.827 60.2485 126.503 61.6291 126.503 61.6291L114.99 63.5548" fill="#024959"/>
<path d="M25.2212 103.707C25.2212 103.707 23.4585 105.374 16.136 108.325C8.81361 111.279 8.66215e-05 113.461 8.66215e-05 112.304C8.66215e-05 111.15 8.1355 80.7322 9.08522 75.7251C10.0349 70.7198 14.3733 65.8457 18.8485 65.7783C23.3217 65.7146 39.424 68.1535 40.2557 62.5057C41.0874 56.8598 31.0506 58.1411 25.7644 59.8102C20.4763 61.4792 14.3733 64.6862 14.5082 63.7889C14.6431 62.8898 19.7963 50.5696 25.8993 46.0776C32.0004 41.5837 35.7974 37.7361 41.7636 39.0174C47.7317 40.3024 57.8996 51.4687 62.9179 49.4138C67.9344 47.3607 67.1214 40.0439 56.6801 37.6069C46.2387 35.1679 38.2382 36.8351 38.6447 35.1679C39.0531 33.4989 43.7979 24.7715 50.9855 20.9202C58.1712 17.0707 62.6444 15.145 67.5279 15.9149C72.4077 16.6867 80.8166 23.4884 84.7485 22.3326C88.6804 21.1787 85.8331 16.5575 79.732 14.3752C73.6309 12.1928 65.6285 12.4513 65.7652 12.0655C65.9001 11.6814 75.3917 2.56634 87.7325 2.31159C100.071 2.05308 109.291 9.07018 120.864 15.9149C132.433 22.7616 140.93 39.5325 140.93 39.5325C140.93 39.5325 89.6301 61.6085 73.2225 68.5375C56.815 75.4685 30.2395 98.5069 30.2395 98.5069L25.2212 103.707" fill="#3CA6A6"/>
<path d="M64.8156 63.4049C64.8156 63.4049 53.7879 52.7088 44.3843 50.74C34.9845 48.7713 25.2212 52.7088 25.2212 52.7088C25.2212 52.7088 37.2511 49.2002 45.9222 52.2798C54.5952 55.3613 64.2742 64.5176 64.2742 64.5176L64.8156 63.4049" fill="#024959"/>
<path d="M130.311 40.559C130.311 40.559 114.988 18.9963 105.09 13.7326C95.1898 8.47257 76.4763 9.40544 76.4763 9.40544C76.4763 9.40544 92.2077 8.98397 103.958 14.8022C114.814 20.1784 128.998 41.756 128.998 41.756L130.311 40.559Z" fill="#024959"/>
<path d="M94.7459 48.6026C94.7459 48.6026 81.9012 33.5419 72.048 28.9226C62.193 24.3013 49.3577 26.3562 49.3577 26.3562C49.3577 26.3562 60.9735 24.6029 72.7243 30.1308C84.4787 35.6605 96.0946 54.6775 96.0946 54.6775L94.7459 48.6026Z" fill="#024959"/>
<path d="M184.82 52.8811C184.82 52.8811 186.311 43.9814 187.036 22.932C187.757 1.88259 207.647 1.95108e-05 221.928 1.95108e-05C236.211 1.95108e-05 255.737 8.5569 260.258 11.6365C264.778 14.7179 262.246 18.824 261.524 18.824C260.801 18.824 239.288 23.0969 230.178 29.9697C221.159 36.7714 217.589 42.9549 220.302 43.4663C223.013 43.9814 238.2 29.0931 248.325 26.5249C258.45 23.9585 279.422 26.6972 284.123 29.6063C288.824 32.5154 294.248 41.756 295.514 44.6652C296.778 47.5761 296.599 48.0875 294.43 48.6027C292.26 49.1159 267.129 53.0947 258.992 55.8314C250.857 58.5701 246.155 60.0687 247.783 62.635C249.41 65.2013 271.286 58.0137 280.688 55.6179C290.09 53.222 301.117 53.5649 302.564 54.4209C304.011 55.2751 308.486 64.6862 310.656 70.7198C312.825 76.7535 313.231 82.9126 311.605 82.9126C309.977 82.9126 279.603 80.9888 275.942 82.9126C272.28 84.8383 272.145 87.5339 281.637 87.6613C291.129 87.7907 308.757 87.6613 310.112 87.6613C311.469 87.6613 319.469 91.6396 322.723 99.8563C325.978 108.07 326.656 121.289 326.656 121.289C326.656 121.289 321.233 126.551 311.74 129.119C302.248 131.686 295.06 129.504 290.18 123.728C285.298 117.953 280.146 110.253 277.298 111.534C274.45 112.819 278.518 117.953 282.043 122.059C285.57 126.167 295.469 136.818 295.469 136.818C295.469 136.818 279.332 143.494 271.195 143.236C263.06 142.979 255.196 134.767 254.247 124.882C253.297 115.001 251.533 107.171 247.873 106.658C244.213 106.144 241.229 107.043 243.534 116.797C245.839 126.551 256.819 143.878 256.819 143.878C256.819 143.878 258.857 145.804 250.857 146.445C242.855 147.087 224.686 146.445 218.178 144.905C211.669 143.366 201.906 141.825 204.482 132.07C207.057 122.316 215.059 110.766 213.703 105.374C212.346 99.9835 205.837 102.55 205.837 104.861C205.837 107.171 204.571 120.306 203.668 126.124C202.764 131.943 201.86 137.248 199.328 137.931C196.799 138.617 174.197 132.115 170.04 127.321C165.882 122.53 165.159 118.594 172.209 111.579C179.26 104.561 187.036 94.6368 185.951 91.726C184.867 88.8167 184.02 84.3678 181.008 89.3318C177.996 94.2921 174.56 105.931 169.679 111.407C164.797 116.884 158.288 110.38 157.203 104.219C156.118 98.0599 156.843 80.7734 167.691 70.5063C178.537 60.2373 184.82 52.8811 184.82 52.8811" fill="#3CA6A6"/>
<path d="M158.726 140.19C158.726 140.19 165.902 146.112 184.361 157.87C202.821 169.626 193.944 186.577 186.36 198.034C178.777 209.488 160.749 220.607 155.592 222.595C150.433 224.587 148.101 220.375 148.485 219.795C148.869 219.216 156.465 199.693 155.152 188.735C153.85 177.891 150.212 171.745 148.313 173.646C146.411 175.549 151.677 195.637 148.597 205.12C145.521 214.604 131.933 229.972 126.832 232.195C121.732 234.423 110.578 233.866 107.302 233.336C104.026 232.804 103.662 232.388 104.354 230.377C105.047 228.363 114.829 206.094 116.698 198.114C118.568 190.134 119.722 185.569 116.561 185.511C113.398 185.453 108.218 206.815 105.369 215.63C102.524 224.442 96.3606 233.106 94.8246 233.812C93.2923 234.518 82.4894 233.11 75.9369 231.645C69.3843 230.181 63.6541 227.237 64.5158 225.933C65.3794 224.628 83.2331 201.287 83.4541 197.329C83.6733 193.371 81.3336 191.829 76.1785 199.375C71.0234 206.92 61.779 221.126 61.0578 222.215C60.3366 223.302 52.5272 227.606 43.4439 225.855C34.3644 224.103 22.1678 217.627 22.1678 217.627C22.1678 217.627 20.3396 210.481 23.0801 201.506C25.8225 192.53 31.5902 187.926 39.3547 187.075C47.1154 186.227 56.7476 186.183 57.1091 183.218C57.4744 180.253 50.7158 180.79 45.1673 181.437C39.6188 182.083 24.826 184.366 24.826 184.366C24.826 184.366 27.4204 167.878 31.9686 161.49C36.5186 155.101 48.0483 153.155 57.4013 157.641C66.7524 162.128 74.6968 164.872 77.1001 162.208C79.5035 159.544 80.2827 156.674 70.3284 153.344C60.3722 150.012 39.0287 149.618 39.0287 149.618C39.0287 149.618 36.2245 150.228 39.8979 143.472C43.5713 136.716 53.7935 122.483 58.6283 118.078C63.4631 113.679 70.0268 106.665 77.3924 113.911C84.756 121.156 90.8477 133.707 96.3943 135.481C101.941 137.256 103.099 130.672 101.031 129.447C98.9625 128.218 87.8749 120.231 83.1469 116.417C78.417 112.602 74.1479 109.059 74.8804 106.667C75.6109 104.271 93.4328 89.5982 99.931 88.8056C106.429 88.0168 110.335 89.5272 112.873 98.9079C115.409 108.289 120.167 119.794 123.35 120.47C126.529 121.143 130.961 122.831 128.119 117.777C125.276 112.727 116.681 103.791 114.372 96.9695C112.06 90.1448 121.338 88.3783 127.428 90.7785C133.52 93.18 148.61 102.938 152.042 117.091C155.474 131.244 158.726 140.19 158.726 140.19" fill="#3CA6A6"/>
<path d="M144.186 59.3812C144.186 59.3812 163.712 54.4209 164.256 43.8109C164.797 33.1991 152.141 11.6364 149.609 12.322C147.08 13.0058 137.495 36.451 131.349 39.1897C125.203 41.9265 128.638 29.4339 135.148 23.6176C141.655 17.7975 143.463 15.2311 142.92 14.7179C142.378 14.2046 142.197 9.75385 130.807 9.41292C119.416 9.07012 97.9023 21.2198 94.4668 24.8146C91.0313 28.4074 89.5852 31.4889 90.1265 37.1348C90.6698 42.7825 96.0946 54.0762 92.4774 54.2485C88.8621 54.4209 84.7035 49.6273 85.6064 42.4397C86.5112 35.254 85.7881 34.0552 82.5343 36.2787C79.2787 38.5059 68.0693 48.2598 51.9783 68.796C35.8873 89.3318 25.2212 103.707 25.2212 103.707C25.2212 103.707 51.392 79.1924 73.9007 71.1057C96.4112 63.019 122.174 63.7888 132.072 61.9924C141.97 60.196 144.186 59.3812 144.186 59.3812" fill="#024959"/>
<path d="M158.996 140.407C158.996 140.407 156.058 141.651 151.285 143.779C138.308 149.566 111.597 161.912 93.1574 173.399C68.3971 188.821 23.1513 216.445 23.1513 216.445C23.1513 216.445 63.553 189.956 89.2236 173.871C115.439 157.441 158.531 139.675 158.531 139.675L158.996 140.407" fill="#024959"/>
<path d="M153.543 142.779C153.543 142.779 167.058 149.14 174.379 159.024C181.701 168.907 176.413 184.565 171.938 191.623C167.464 198.683 167.464 198.683 167.464 198.683C167.464 198.683 175.214 185.464 176.752 174.682C178.29 163.899 171.889 157.613 169.566 155.108C165.218 150.424 152.428 143.272 152.428 143.272L153.543 142.779Z" fill="#024959"/>
<path d="M153.322 141.876C153.322 141.876 149.068 122.189 145.362 115.342C141.655 108.497 125.474 94.9779 125.474 94.9779C125.474 94.9779 141.646 109.702 144.819 115.771C147.99 121.838 152.428 142.26 152.428 142.26L153.322 141.876" fill="#024959"/>
<path d="M127.621 153.46C127.621 153.46 122.706 133.418 115.475 123.492C108.242 113.566 94.7459 102.849 94.7459 102.849C94.7459 102.849 107.484 114.486 113.27 122.872C119.055 131.258 126.752 153.874 126.752 153.874L127.621 153.46" fill="#024959"/>
<path d="M126.829 155.264C126.829 155.264 135.494 158.694 139.478 170.731C143.463 182.768 137.894 200.223 133.153 208.95C128.411 217.678 128.411 217.678 128.411 217.678C128.411 217.678 137.12 202.533 139.478 187.133C141.835 171.729 136.086 165.297 134.241 162.232C132.4 159.168 126.025 155.663 126.025 155.663L126.829 155.264" fill="#024959"/>
<path d="M109.644 162.356C109.644 162.356 94.1034 143.494 80.6799 137.588C67.2564 131.686 53.9677 131.558 53.9677 131.558C53.9677 131.558 73.0409 133.205 82.8959 139.675C92.7491 146.147 108.43 162.988 108.43 162.988L109.644 162.356" fill="#024959"/>
<path d="M104.408 166.811C104.408 166.811 108.578 173.966 107.529 183.025C105.495 200.609 83.9356 221.913 83.9356 221.913C83.9356 221.913 98.0747 206.264 102.604 195.86C107.132 185.455 106.884 177.894 106.128 173.355C105.373 168.816 103.056 166.811 103.056 166.811H104.408Z" fill="#024959"/>
<path d="M86.5712 175.536C86.5712 175.536 64.6357 167.281 51.7966 165.913C38.9613 164.542 30.0129 174.725 30.0129 174.725C30.0129 174.725 39.143 166.256 50.8937 166.811C62.6445 167.367 85.3798 176.285 85.3798 176.285L86.5712 175.536" fill="#024959"/>
<path d="M184.82 52.8811L326.656 121.289L183.342 54.5539L184.82 52.8811Z" fill="#024959"/>
<path d="M190.41 55.5748C190.41 55.5748 190.649 30.8051 199.058 19.8936C207.465 8.98396 236.484 9.40544 236.484 9.40544C236.484 9.40544 214.788 9.62647 203.397 18.2264C192.007 26.8245 192.44 56.5563 192.44 56.5563L190.41 55.5748" fill="#024959"/>
<path d="M209.062 64.5719C209.062 64.5719 231.512 45.1784 240.009 40.7295C248.506 36.2787 281.05 39.0174 281.05 39.0174C281.05 39.0174 250.264 37.1236 241.002 41.6699C231.742 46.2181 210.358 65.1976 210.358 65.1976L209.062 64.5719Z" fill="#024959"/>
<path d="M232.69 75.9686C232.69 75.9686 269.75 66.5612 280.688 65.1975C291.627 63.8319 303.92 66.9134 303.92 66.9134C303.92 66.9134 291.627 63.8319 279.873 66.1435C268.122 68.4532 234.206 76.701 234.206 76.701L232.69 75.9686Z" fill="#024959"/>
<path d="M206.198 65.1976C206.198 65.1976 198.517 76.6242 192.684 93.3109C186.854 109.996 186.311 126.294 186.311 126.294C186.311 126.294 190.546 100.206 195.289 89.8432C199.819 79.9548 207.597 65.8495 207.597 65.8495L206.198 65.1976" fill="#024959"/>
<path d="M231.484 76.9727C231.484 76.9727 225.772 92.9254 224.008 108.967C222.245 125.012 227.747 138.36 227.747 138.36C227.747 138.36 223.058 118.71 226.448 100.367C229.838 82.0266 233.716 78.0123 233.716 78.0123L231.484 76.9727" fill="#024959"/>
<path d="M256.68 88.7047C256.68 88.7047 257.501 101.523 261.432 113.589C265.365 125.652 274.857 134.894 274.857 134.894C274.857 134.894 264.824 124.755 261.569 108.967C258.924 96.1391 258.747 89.6654 258.747 89.6654L256.68 88.7047" fill="#024959"/>
</svg>

